<svg width="432.10625px" height="143.6px" xmlns="http://www.w3.org/2000/svg" viewBox="33.946875000000006 3.200000000000003 432.10625 143.6" style="background: rgba(0, 0, 0, 0);" preserveAspectRatio="xMidYMid"><defs><filter id="editing-extrude-glow"><feFlood flood-color="#333333" result="flood-1"></feFlood><feMorphology operator="erode" radius="1" in="SourceAlpha" result="erode"></feMorphology><feComposite operator="in" in="flood-1" in2="erode" result="comp1"></feComposite><feConvolveMatrix order="0,0" divisor="1" in="comp1" result="convolve" kernelMatrix=""></feConvolveMatrix><feOffset dx="0" dy="0" in="convolve" result="extrude"></feOffset><feComposite operator="in" in="flood-1" in2="extrude" result="comp-extrude"></feComposite><feFlood flood-color="#000000" result="flood-2"></feFlood><feComposite operator="in" in="flood-2" in2="SourceAlpha" result="comp2"></feComposite><feMorphology operator="dilate" radius="1" in="comp2" result="dilate"></feMorphology><feOffset dx="0" dy="0" in="dilate" result="offset"></feOffset><feGaussianBlur in="offset" stdDeviation="5.8" result="blur"></feGaussianBlur><feComponentTransfer in="blur" result="shadow"><feFuncA type="linear" slope="0.8" intercept="-0.2"></feFuncA></feComponentTransfer><feMerge><feMergeNode in="shadow"></feMergeNode><feMergeNode in="comp-extrude"></feMergeNode><feMergeNode in="SourceGraphic"></feMergeNode></feMerge></filter></defs><g filter="url(#editing-extrude-glow)"><g transform="translate(97.48499298095703, 99.34500122070312)"><path d="M6 0L6-48L42.06-48L42.06-48Q46.53-48 49.61-47.61L49.61-47.61L49.61-47.61Q52.69-47.22 54.69-46.44L54.69-46.44L54.69-46.44Q56.69-45.66 57.77-44.50L57.77-44.50L57.77-44.50Q58.84-43.34 59.34-41.78L59.34-41.78L59.34-41.78Q59.84-40.22 59.92-38.28L59.92-38.28L59.92-38.28Q60-36.34 60-34L60-34L60-34Q60-31.56 59.89-29.50L59.89-29.50L59.89-29.50Q59.78-27.44 59.17-25.77L59.17-25.77L59.17-25.77Q58.56-24.09 57.23-22.83L57.23-22.83L57.23-22.83Q55.91-21.56 53.45-20.72L53.45-20.72L53.45-20.72Q51-19.88 47.23-19.44L47.23-19.44L47.23-19.44Q43.47-19 37.97-19L37.97-19L12-19L12 0L6 0ZM12-43L12-24L37.97-24L37.97-24Q41.97-24 44.70-24.14L44.70-24.14L44.70-24.14Q47.44-24.28 49.22-24.66L49.22-24.66L49.22-24.66Q51-25.03 51.97-25.72L51.97-25.72L51.97-25.72Q52.94-26.41 53.39-27.53L53.39-27.53L53.39-27.53Q53.84-28.66 53.92-30.23L53.92-30.23L53.92-30.23Q54-31.81 54-34L54-34L54-34Q54-36.03 53.92-37.50L53.92-37.50L53.92-37.50Q53.84-38.97 53.39-39.97L53.39-39.97L53.39-39.97Q52.94-40.97 51.97-41.56L51.97-41.56L51.97-41.56Q51-42.16 49.22-42.48L49.22-42.48L49.22-42.48Q47.44-42.81 44.70-42.91L44.70-42.91L44.70-42.91Q41.97-43 37.97-43L37.97-43L12-43ZM108 0L102 0L102-20.31L102-20.31Q102-23.56 101.50-25.80L101.50-25.80L101.50-25.80Q101-28.03 99.50-29.41L99.50-29.41L99.50-29.41Q98-30.78 95.25-31.39L95.25-31.39L95.25-31.39Q92.50-32 88-32L88-32L88-32Q83.13-32 80.02-31.30L80.02-31.30L80.02-31.30Q76.91-30.59 75.13-29.33L75.13-29.33L75.13-29.33Q73.34-28.06 72.67-26.28L72.67-26.28L72.67-26.28Q72-24.50 72-22.31L72-22.31L72 0L66 0L66-48L72-48L72-30.31L72-30.31Q72.63-31.78 73.78-32.84L73.78-32.84L73.78-32.84Q74.94-33.91 76.45-34.66L76.45-34.66L76.45-34.66Q77.97-35.41 79.72-35.86L79.72-35.86L79.72-35.86Q81.47-36.31 83.27-36.56L83.27-36.56L83.27-36.56Q85.06-36.81 86.80-36.91L86.80-36.91L86.80-36.91Q88.53-37 90-37L90-37L90-37Q94-37 96.89-36.52L96.89-36.52L96.89-36.52Q99.78-36.03 101.80-35.08L101.80-35.08L101.80-35.08Q103.81-34.13 105.03-32.72L105.03-32.72L105.03-32.72Q106.25-31.31 106.92-29.45L106.92-29.45L106.92-29.45Q107.59-27.59 107.81-25.30L107.81-25.30L107.81-25.30Q108.03-23 108.03-20.31L108.03-20.31L108 0ZM115.03-18.25L115.03-18.25L115.03-18.25Q115.03-23.78 116.22-27.41L116.22-27.41L116.22-27.41Q117.41-31.03 120.03-33.16L120.03-33.16L120.03-33.16Q122.66-35.28 126.84-36.14L126.84-36.14L126.84-36.14Q131.03-37 137.03-37L137.03-37L137.03-37Q143.03-37 147.22-36.14L147.22-36.14L147.22-36.14Q151.41-35.28 154.03-33.16L154.03-33.16L154.03-33.16Q156.66-31.03 157.84-27.41L157.84-27.41L157.84-27.41Q159.03-23.78 159.03-18.25L159.03-18.25L159.03-18.25Q159.03-12.72 157.84-9.06L157.84-9.06L157.84-9.06Q156.66-5.41 154.03-3.25L154.03-3.25L154.03-3.25Q151.41-1.09 147.22-0.20L147.22-0.20L147.22-0.20Q143.03 0.69 137.03 0.69L137.03 0.69L137.03 0.69Q131.03 0.69 126.84-0.20L126.84-0.20L126.84-0.20Q122.66-1.09 120.03-3.25L120.03-3.25L120.03-3.25Q117.41-5.41 116.22-9.06L116.22-9.06L116.22-9.06Q115.03-12.72 115.03-18.25ZM121.03-18.25L121.03-18.25L121.03-18.25Q121.03-15.25 121.25-13.03L121.25-13.03L121.25-13.03Q121.47-10.81 122.08-9.22L122.08-9.22L122.08-9.22Q122.69-7.63 123.78-6.63L123.78-6.63L123.78-6.63Q124.88-5.63 126.66-5.03L126.66-5.03L126.66-5.03Q128.44-4.44 130.98-4.22L130.98-4.22L130.98-4.22Q133.53-4 137.03-4L137.03-4L137.03-4Q140.03-4 142.39-4.14L142.39-4.14L142.39-4.14Q144.75-4.28 146.52-4.78L146.52-4.78L146.52-4.78Q148.28-5.28 149.53-6.20L149.53-6.20L149.53-6.20Q150.78-7.13 151.55-8.72L151.55-8.72L151.55-8.72Q152.31-10.31 152.67-12.64L152.67-12.64L152.67-12.64Q153.03-14.97 153.03-18.25L153.03-18.25L153.03-18.25Q153.03-21.47 152.67-23.73L152.67-23.73L152.67-23.73Q152.31-26 151.55-27.53L151.55-27.53L151.55-27.53Q150.78-29.06 149.53-29.95L149.53-29.95L149.53-29.95Q148.28-30.84 146.52-31.30L146.52-31.30L146.52-31.30Q144.75-31.75 142.39-31.88L142.39-31.88L142.39-31.88Q140.03-32 137.03-32L137.03-32L137.03-32Q134.03-32 131.67-31.88L131.67-31.88L131.67-31.88Q129.31-31.75 127.55-31.30L127.55-31.30L127.55-31.30Q125.78-30.84 124.53-29.95L124.53-29.95L124.53-29.95Q123.28-29.06 122.52-27.53L122.52-27.53L122.52-27.53Q121.75-26 121.39-23.73L121.39-23.73L121.39-23.73Q121.03-21.47 121.03-18.25ZM196.03-16L201.03-16L201.03-16Q201.03-11.41 200.28-8.33L200.28-8.33L200.28-8.33Q199.53-5.25 197.77-3.41L197.77-3.41L197.77-3.41Q196-1.56 193.13-0.78L193.13-0.78L193.13-0.78Q190.25 0 186.03 0L186.03 0L186.03 0Q181.94 0 179.16-0.63L179.16-0.63L179.16-0.63Q176.38-1.25 174.66-2.75L174.66-2.75L174.66-2.75Q172.94-4.25 172.19-6.75L172.19-6.75L172.19-6.75Q171.44-9.25 171.44-13L171.44-13L171.44-31.06L164.03-31.06L164.03-36L171.44-36L171.44-45.84L177.44-45.84L177.44-36L200.03-36L200.03-31.06L177.44-31.06L177.44-13L177.44-13Q177.44-10 177.89-8.38L177.89-8.38L177.89-8.38Q178.34-6.75 179.34-6L179.34-6L179.34-6Q180.34-5.25 181.98-5.13L181.98-5.13L181.98-5.13Q183.63-5 186-5L186-5L186-5Q187.88-5 189.36-5.06L189.36-5.06L189.36-5.06Q190.84-5.13 191.95-5.45L191.95-5.45L191.95-5.45Q193.06-5.78 193.84-6.45L193.84-6.45L193.84-6.45Q194.63-7.13 195.11-8.34L195.11-8.34L195.11-8.34Q195.59-9.56 195.81-11.42L195.81-11.42L195.81-11.42Q196.03-13.28 196.03-16L196.03-16ZM206.03-18.25L206.03-18.25L206.03-18.25Q206.03-23.78 207.22-27.41L207.22-27.41L207.22-27.41Q208.41-31.03 211.03-33.16L211.03-33.16L211.03-33.16Q213.66-35.28 217.84-36.14L217.84-36.14L217.84-36.14Q222.03-37 228.03-37L228.03-37L228.03-37Q234.03-37 238.22-36.14L238.22-36.14L238.22-36.14Q242.41-35.28 245.03-33.16L245.03-33.16L245.03-33.16Q247.66-31.03 248.84-27.41L248.84-27.41L248.84-27.41Q250.03-23.78 250.03-18.25L250.03-18.25L250.03-18.25Q250.03-12.72 248.84-9.06L248.84-9.06L248.84-9.06Q247.66-5.41 245.03-3.25L245.03-3.25L245.03-3.25Q242.41-1.09 238.22-0.20L238.22-0.20L238.22-0.20Q234.03 0.69 228.03 0.69L228.03 0.69L228.03 0.69Q222.03 0.69 217.84-0.20L217.84-0.20L217.84-0.20Q213.66-1.09 211.03-3.25L211.03-3.25L211.03-3.25Q208.41-5.41 207.22-9.06L207.22-9.06L207.22-9.06Q206.03-12.72 206.03-18.25ZM212.03-18.25L212.03-18.25L212.03-18.25Q212.03-15.25 212.25-13.03L212.25-13.03L212.25-13.03Q212.47-10.81 213.08-9.22L213.08-9.22L213.08-9.22Q213.69-7.63 214.78-6.63L214.78-6.63L214.78-6.63Q215.88-5.63 217.66-5.03L217.66-5.03L217.66-5.03Q219.44-4.44 221.98-4.22L221.98-4.22L221.98-4.22Q224.53-4 228.03-4L228.03-4L228.03-4Q231.03-4 233.39-4.14L233.39-4.14L233.39-4.14Q235.75-4.28 237.52-4.78L237.52-4.78L237.52-4.78Q239.28-5.28 240.53-6.20L240.53-6.20L240.53-6.20Q241.78-7.13 242.55-8.72L242.55-8.72L242.55-8.72Q243.31-10.31 243.67-12.64L243.67-12.64L243.67-12.64Q244.03-14.97 244.03-18.25L244.03-18.25L244.03-18.25Q244.03-21.47 243.67-23.73L243.67-23.73L243.67-23.73Q243.31-26 242.55-27.53L242.55-27.53L242.55-27.53Q241.78-29.06 240.53-29.95L240.53-29.95L240.53-29.95Q239.28-30.84 237.52-31.30L237.52-31.30L237.52-31.30Q235.75-31.75 233.39-31.88L233.39-31.88L233.39-31.88Q231.03-32 228.03-32L228.03-32L228.03-32Q225.03-32 222.67-31.88L222.67-31.88L222.67-31.88Q220.31-31.75 218.55-31.30L218.55-31.30L218.55-31.30Q216.78-30.84 215.53-29.95L215.53-29.95L215.53-29.95Q214.28-29.06 213.52-27.53L213.52-27.53L213.52-27.53Q212.75-26 212.39-23.73L212.39-23.73L212.39-23.73Q212.03-21.47 212.03-18.25ZM278.03-16.41L278.03-16.41L278.03-16.41Q281.53-16.41 284-16.30L284-16.30L284-16.30Q286.47-16.19 288.14-15.92L288.14-15.92L288.14-15.92Q289.81-15.66 290.78-15.25L290.78-15.25L290.78-15.25Q291.75-14.84 292.25-14.05L292.25-14.05L292.25-14.05Q292.75-13.25 292.89-12.45L292.89-12.45L292.89-12.45Q293.03-11.66 293.03-10.63L293.03-10.63L293.03-10.63Q293.03-9.50 292.89-8.58L292.89-8.58L292.89-8.58Q292.75-7.66 292.22-6.91L292.22-6.91L292.22-6.91Q291.69-6.16 290.66-5.63L290.66-5.63L290.66-5.63Q289.63-5.09 287.84-4.72L287.84-4.72L287.84-4.72Q286.06-4.34 283.42-4.17L283.42-4.17L283.42-4.17Q280.78-4 277.03-4L277.03-4L277.03-4Q272.91-4 270.20-4.23L270.20-4.23L270.20-4.23Q267.50-4.47 265.91-5.13L265.91-5.13L265.91-5.13Q264.31-5.78 263.67-6.95L263.67-6.95L263.67-6.95Q263.03-8.13 263.03-10L263.03-10L257.03-10L257.03-10Q257.03-7.16 258.05-5.19L258.05-5.19L258.05-5.19Q259.06-3.22 261.41-1.98L261.41-1.98L261.41-1.98Q263.75-0.75 267.58-0.19L267.58-0.19L267.58-0.19Q271.41 0.38 277.03 0.38L277.03 0.38L277.03 0.38Q281.53 0.38 284.92 0.11L284.92 0.11L284.92 0.11Q288.31-0.16 290.75-0.70L290.75-0.70L290.75-0.70Q293.19-1.25 294.80-2.14L294.80-2.14L294.80-2.14Q296.41-3.03 297.34-4.27L297.34-4.27L297.34-4.27Q298.28-5.50 298.66-7.11L298.66-7.11L298.66-7.11Q299.03-8.72 299.03-10.75L299.03-10.75L299.03-10.75Q299.03-12.78 298.66-14.33L298.66-14.33L298.66-14.33Q298.28-15.88 297.36-17.02L297.36-17.02L297.36-17.02Q296.44-18.16 294.91-19.13L294.91-19.13L294.91-19.13Q293.38-20.09 291.03-20.56L291.03-20.56L291.03-20.56Q288.69-21.03 285.48-21.22L285.48-21.22L285.48-21.22Q282.28-21.41 278.03-21.41L278.03-21.41L278.03-21.41Q274.53-21.41 272.06-21.42L272.06-21.42L272.06-21.42Q269.59-21.44 267.92-21.61L267.92-21.61L267.92-21.61Q266.25-21.78 265.28-22.13L265.28-22.13L265.28-22.13Q264.31-22.47 263.81-23.13L263.81-23.13L263.81-23.13Q263.31-23.78 263.17-24.80L263.17-24.80L263.17-24.80Q263.03-25.81 263.03-26.88L263.03-26.88L263.03-26.88Q263.03-28.69 263.84-29.72L263.84-29.72L263.84-29.72Q264.66-30.75 266.53-31.25L266.53-31.25L266.53-31.25Q268.41-31.75 271.47-31.88L271.47-31.88L271.47-31.88Q274.53-32 279.03-32L279.03-32L279.03-32Q283.16-32 285.86-31.77L285.86-31.77L285.86-31.77Q288.56-31.53 290.16-30.92L290.16-30.92L290.16-30.92Q291.75-30.31 292.39-29.25L292.39-29.25L292.39-29.25Q293.03-28.19 293.03-26.50L293.03-26.50L299.03-26.50L299.03-26.50Q299.03-29.22 298.13-31.19L298.13-31.19L298.13-31.19Q297.22-33.16 294.95-34.45L294.95-34.45L294.95-34.45Q292.69-35.75 288.83-36.38L288.83-36.38L288.83-36.38Q284.97-37 279.03-37L279.03-37L279.03-37Q273.03-37 268.84-36.47L268.84-36.47L268.84-36.47Q264.66-35.94 262.03-34.73L262.03-34.73L262.03-34.73Q259.41-33.53 258.22-31.61L258.22-31.61L258.22-31.61Q257.03-29.69 257.03-26.88L257.03-26.88L257.03-26.88Q257.03-24.81 257.41-23.05L257.41-23.05L257.41-23.05Q257.78-21.28 258.69-20.08L258.69-20.08L258.69-20.08Q259.59-18.88 261.14-18.16L261.14-18.16L261.14-18.16Q262.69-17.44 265.02-17.05L265.02-17.05L265.02-17.05Q267.34-16.66 270.56-16.53L270.56-16.53L270.56-16.53Q273.78-16.41 278.03-16.41Z" fill="#181b09"></path></g></g><style>text {
  font-size: 64px;
  font-family: Arial Black;
  dominant-baseline: central;
  text-anchor: middle;
}</style></svg>