<svg width="366.2px" height="143.6px" xmlns="http://www.w3.org/2000/svg" viewBox="66.9 3.200000000000003 366.2 143.6" style="background: rgba(0, 0, 0, 0);" preserveAspectRatio="xMidYMid"><defs><filter id="editing-extrude-glow"><feFlood flood-color="#333333" result="flood-1"></feFlood><feMorphology operator="erode" radius="1" in="SourceAlpha" result="erode"></feMorphology><feComposite operator="in" in="flood-1" in2="erode" result="comp1"></feComposite><feConvolveMatrix order="0,0" divisor="1" in="comp1" result="convolve" kernelMatrix=""></feConvolveMatrix><feOffset dx="0" dy="0" in="convolve" result="extrude"></feOffset><feComposite operator="in" in="flood-1" in2="extrude" result="comp-extrude"></feComposite><feFlood flood-color="#000000" result="flood-2"></feFlood><feComposite operator="in" in="flood-2" in2="SourceAlpha" result="comp2"></feComposite><feMorphology operator="dilate" radius="1" in="comp2" result="dilate"></feMorphology><feOffset dx="0" dy="0" in="dilate" result="offset"></feOffset><feGaussianBlur in="offset" stdDeviation="5.8" result="blur"></feGaussianBlur><feComponentTransfer in="blur" result="shadow"><feFuncA type="linear" slope="0.8" intercept="-0.2"></feFuncA></feComponentTransfer><feMerge><feMergeNode in="shadow"></feMergeNode><feMergeNode in="comp-extrude"></feMergeNode><feMergeNode in="SourceGraphic"></feMergeNode></feMerge></filter></defs><g filter="url(#editing-extrude-glow)"><g transform="translate(121.71998596191406, 99.34500122070312)"><path d="M40.94 0L12-44L12 0L6 0L6-48L16-48L43.97-6L71.94-48L81.50-48L81.50 0L75.50 0L75.50-43.34L47 0L40.94 0ZM91.53-36L97.53-36L97.53-16L97.53-16Q97.53-12.66 98.03-10.36L98.03-10.36L98.03-10.36Q98.53-8.06 100.03-6.66L100.03-6.66L100.03-6.66Q101.53-5.25 104.28-4.63L104.28-4.63L104.28-4.63Q107.03-4 111.53-4L111.53-4L111.53-4Q116.41-4 119.52-4.72L119.52-4.72L119.52-4.72Q122.63-5.44 124.41-6.75L124.41-6.75L124.41-6.75Q126.19-8.06 126.86-9.91L126.86-9.91L126.86-9.91Q127.53-11.75 127.53-14L127.53-14L127.53-36L133.53-36L133.53 0L127.53 0L127.53-6L127.53-6Q127.09-5.03 126.06-3.86L126.06-3.86L126.06-3.86Q125.03-2.69 122.97-1.69L122.97-1.69L122.97-1.69Q120.91-0.69 117.64 0L117.64 0L117.64 0Q114.38 0.69 109.53 0.69L109.53 0.69L109.53 0.69Q105.50 0.69 102.61 0.20L102.61 0.20L102.61 0.20Q99.72-0.28 97.70-1.23L97.70-1.23L97.70-1.23Q95.69-2.19 94.47-3.59L94.47-3.59L94.47-3.59Q93.25-5 92.59-6.86L92.59-6.86L92.59-6.86Q91.94-8.72 91.72-11L91.72-11L91.72-11Q91.50-13.28 91.50-16L91.50-16L91.53-36ZM162.53-16.41L162.53-16.41L162.53-16.41Q166.03-16.41 168.50-16.30L168.50-16.30L168.50-16.30Q170.97-16.19 172.64-15.92L172.64-15.92L172.64-15.92Q174.31-15.66 175.28-15.25L175.28-15.25L175.28-15.25Q176.25-14.84 176.75-14.05L176.75-14.05L176.75-14.05Q177.25-13.25 177.39-12.45L177.39-12.45L177.39-12.45Q177.53-11.66 177.53-10.63L177.53-10.63L177.53-10.63Q177.53-9.50 177.39-8.58L177.39-8.58L177.39-8.58Q177.25-7.66 176.72-6.91L176.72-6.91L176.72-6.91Q176.19-6.16 175.16-5.63L175.16-5.63L175.16-5.63Q174.13-5.09 172.34-4.72L172.34-4.72L172.34-4.72Q170.56-4.34 167.92-4.17L167.92-4.17L167.92-4.17Q165.28-4 161.53-4L161.53-4L161.53-4Q157.41-4 154.70-4.23L154.70-4.23L154.70-4.23Q152-4.47 150.41-5.13L150.41-5.13L150.41-5.13Q148.81-5.78 148.17-6.95L148.17-6.95L148.17-6.95Q147.53-8.13 147.53-10L147.53-10L141.53-10L141.53-10Q141.53-7.16 142.55-5.19L142.55-5.19L142.55-5.19Q143.56-3.22 145.91-1.98L145.91-1.98L145.91-1.98Q148.25-0.75 152.08-0.19L152.08-0.19L152.08-0.19Q155.91 0.38 161.53 0.38L161.53 0.38L161.53 0.38Q166.03 0.38 169.42 0.11L169.42 0.11L169.42 0.11Q172.81-0.16 175.25-0.70L175.25-0.70L175.25-0.70Q177.69-1.25 179.30-2.14L179.30-2.14L179.30-2.14Q180.91-3.03 181.84-4.27L181.84-4.27L181.84-4.27Q182.78-5.50 183.16-7.11L183.16-7.11L183.16-7.11Q183.53-8.72 183.53-10.75L183.53-10.75L183.53-10.75Q183.53-12.78 183.16-14.33L183.16-14.33L183.16-14.33Q182.78-15.88 181.86-17.02L181.86-17.02L181.86-17.02Q180.94-18.16 179.41-19.13L179.41-19.13L179.41-19.13Q177.88-20.09 175.53-20.56L175.53-20.56L175.53-20.56Q173.19-21.03 169.98-21.22L169.98-21.22L169.98-21.22Q166.78-21.41 162.53-21.41L162.53-21.41L162.53-21.41Q159.03-21.41 156.56-21.42L156.56-21.42L156.56-21.42Q154.09-21.44 152.42-21.61L152.42-21.61L152.42-21.61Q150.75-21.78 149.78-22.13L149.78-22.13L149.78-22.13Q148.81-22.47 148.31-23.13L148.31-23.13L148.31-23.13Q147.81-23.78 147.67-24.80L147.67-24.80L147.67-24.80Q147.53-25.81 147.53-26.88L147.53-26.88L147.53-26.88Q147.53-28.69 148.34-29.72L148.34-29.72L148.34-29.72Q149.16-30.75 151.03-31.25L151.03-31.25L151.03-31.25Q152.91-31.75 155.97-31.88L155.97-31.88L155.97-31.88Q159.03-32 163.53-32L163.53-32L163.53-32Q167.66-32 170.36-31.77L170.36-31.77L170.36-31.77Q173.06-31.53 174.66-30.92L174.66-30.92L174.66-30.92Q176.25-30.31 176.89-29.25L176.89-29.25L176.89-29.25Q177.53-28.19 177.53-26.50L177.53-26.50L183.53-26.50L183.53-26.50Q183.53-29.22 182.63-31.19L182.63-31.19L182.63-31.19Q181.72-33.16 179.45-34.45L179.45-34.45L179.45-34.45Q177.19-35.75 173.33-36.38L173.33-36.38L173.33-36.38Q169.47-37 163.53-37L163.53-37L163.53-37Q157.53-37 153.34-36.47L153.34-36.47L153.34-36.47Q149.16-35.94 146.53-34.73L146.53-34.73L146.53-34.73Q143.91-33.53 142.72-31.61L142.72-31.61L142.72-31.61Q141.53-29.69 141.53-26.88L141.53-26.88L141.53-26.88Q141.53-24.81 141.91-23.05L141.91-23.05L141.91-23.05Q142.28-21.28 143.19-20.08L143.19-20.08L143.19-20.08Q144.09-18.88 145.64-18.16L145.64-18.16L145.64-18.16Q147.19-17.44 149.52-17.05L149.52-17.05L149.52-17.05Q151.84-16.66 155.06-16.53L155.06-16.53L155.06-16.53Q158.28-16.41 162.53-16.41ZM193.53 0L193.53-36L199.53-36L199.53 0L193.53 0ZM199.53-48L199.53-42L193.53-42L193.53-48L199.53-48ZM208.53-17.94L208.53-17.94L208.53-17.94Q208.53-21.69 208.91-24.56L208.91-24.56L208.91-24.56Q209.28-27.44 210.23-29.56L210.23-29.56L210.23-29.56Q211.19-31.69 212.80-33.11L212.80-33.11L212.80-33.11Q214.41-34.53 216.86-35.41L216.86-35.41L216.86-35.41Q219.31-36.28 222.69-36.66L222.69-36.66L222.69-36.66Q226.06-37.03 230.56-37.03L230.56-37.03L230.56-37.03Q236.56-37.03 240.44-36.30L240.44-36.30L240.44-36.30Q244.31-35.56 246.56-34.05L246.56-34.05L246.56-34.05Q248.81-32.53 249.69-30.20L249.69-30.20L249.69-30.20Q250.56-27.88 250.56-24.66L250.56-24.66L244.56-24.66L244.56-24.66Q244.56-25.81 244.50-26.81L244.50-26.81L244.50-26.81Q244.44-27.81 244.05-28.63L244.05-28.63L244.05-28.63Q243.66-29.44 242.81-30.08L242.81-30.08L242.81-30.08Q241.97-30.72 240.41-31.16L240.41-31.16L240.41-31.16Q238.84-31.59 236.45-31.81L236.45-31.81L236.45-31.81Q234.06-32.03 230.56-32.03L230.56-32.03L230.56-32.03Q226.56-32.03 223.83-31.75L223.83-31.75L223.83-31.75Q221.09-31.47 219.31-30.83L219.31-30.83L219.31-30.83Q217.53-30.19 216.56-29.11L216.56-29.11L216.56-29.11Q215.59-28.03 215.16-26.47L215.16-26.47L215.16-26.47Q214.72-24.91 214.64-22.80L214.64-22.80L214.64-22.80Q214.56-20.69 214.56-17.94L214.56-17.94L214.56-17.94Q214.56-15.25 214.64-13.17L214.64-13.17L214.64-13.17Q214.72-11.09 215.16-9.55L215.16-9.55L215.16-9.55Q215.59-8 216.56-6.94L216.56-6.94L216.56-6.94Q217.53-5.88 219.31-5.22L219.31-5.22L219.31-5.22Q221.09-4.56 223.83-4.28L223.83-4.28L223.83-4.28Q226.56-4 230.56-4L230.56-4L230.56-4Q234.06-4 236.45-4.25L236.45-4.25L236.45-4.25Q238.84-4.50 240.41-4.97L240.41-4.97L240.41-4.97Q241.97-5.44 242.81-6.13L242.81-6.13L242.81-6.13Q243.66-6.81 244.05-7.70L244.05-7.70L244.05-7.70Q244.44-8.59 244.50-9.67L244.50-9.67L244.50-9.67Q244.56-10.75 244.56-12L244.56-12L250.56-12L250.56-12Q250.56-8.72 249.69-6.31L249.69-6.31L249.69-6.31Q248.81-3.91 246.56-2.36L246.56-2.36L246.56-2.36Q244.31-0.81 240.44-0.06L240.44-0.06L240.44-0.06Q236.56 0.69 230.56 0.69L230.56 0.69L230.56 0.69Q226.06 0.69 222.69 0.31L222.69 0.31L222.69 0.31Q219.31-0.06 216.86-0.92L216.86-0.92L216.86-0.92Q214.41-1.78 212.80-3.19L212.80-3.19L212.80-3.19Q211.19-4.59 210.23-6.66L210.23-6.66L210.23-6.66Q209.28-8.72 208.91-11.52L208.91-11.52L208.91-11.52Q208.53-14.31 208.53-17.94Z" fill="#181b09"></path></g></g><style>text {
  font-size: 64px;
  font-family: Arial Black;
  dominant-baseline: central;
  text-anchor: middle;
}</style></svg>