<svg width="202.25px" height="143.6px" xmlns="http://www.w3.org/2000/svg" viewBox="148.875 3.200000000000003 202.25 143.6" style="background: rgba(0, 0, 0, 0);" preserveAspectRatio="xMidYMid"><defs><filter id="editing-extrude-glow"><feFlood flood-color="#333333" result="flood-1"></feFlood><feMorphology operator="erode" radius="1" in="SourceAlpha" result="erode"></feMorphology><feComposite operator="in" in="flood-1" in2="erode" result="comp1"></feComposite><feConvolveMatrix order="0,0" divisor="1" in="comp1" result="convolve" kernelMatrix=""></feConvolveMatrix><feOffset dx="0" dy="0" in="convolve" result="extrude"></feOffset><feComposite operator="in" in="flood-1" in2="extrude" result="comp-extrude"></feComposite><feFlood flood-color="#000000" result="flood-2"></feFlood><feComposite operator="in" in="flood-2" in2="SourceAlpha" result="comp2"></feComposite><feMorphology operator="dilate" radius="1" in="comp2" result="dilate"></feMorphology><feOffset dx="0" dy="0" in="dilate" result="offset"></feOffset><feGaussianBlur in="offset" stdDeviation="5.8" result="blur"></feGaussianBlur><feComponentTransfer in="blur" result="shadow"><feFuncA type="linear" slope="0.8" intercept="-0.2"></feFuncA></feComponentTransfer><feMerge><feMergeNode in="shadow"></feMergeNode><feMergeNode in="comp-extrude"></feMergeNode><feMergeNode in="SourceGraphic"></feMergeNode></feMerge></filter></defs><g filter="url(#editing-extrude-glow)"><g transform="translate(181.50001525878906, 99.34500122070312)"><path d="M41.97 0L6 0L6-48L46.03-48L46.03-48Q50.53-48 53.28-47.27L53.28-47.27L53.28-47.27Q56.03-46.53 57.52-45.11L57.52-45.11L57.52-45.11Q59-43.69 59.50-41.56L59.50-41.56L59.50-41.56Q60-39.44 60-36.69L60-36.69L60-36.69Q60-34.69 59.66-33.16L59.66-33.16L59.66-33.16Q59.31-31.63 58.75-30.50L58.75-30.50L58.75-30.50Q58.19-29.38 57.47-28.61L57.47-28.61L57.47-28.61Q56.75-27.84 56-27.34L56-27.34L56-27.34Q54.25-26.16 52-26L52-26L52-26Q54.81-25.84 57-24.63L57-24.63L57-24.63Q57.94-24.09 58.83-23.30L58.83-23.30L58.83-23.30Q59.72-22.50 60.42-21.33L60.42-21.33L60.42-21.33Q61.13-20.16 61.56-18.58L61.56-18.58L61.56-18.58Q62-17 62-14.94L62-14.94L62-14.94Q62-12.44 61.77-10.36L61.77-10.36L61.77-10.36Q61.53-8.28 60.81-6.63L60.81-6.63L60.81-6.63Q60.09-4.97 58.75-3.72L58.75-3.72L58.75-3.72Q57.41-2.47 55.17-1.64L55.17-1.64L55.17-1.64Q52.94-0.81 49.70-0.41L49.70-0.41L49.70-0.41Q46.47 0 41.97 0L41.97 0ZM12-5L39.97-5L39.97-5Q43.47-5 46.03-5.11L46.03-5.11L46.03-5.11Q48.59-5.22 50.38-5.58L50.38-5.58L50.38-5.58Q52.16-5.94 53.25-6.61L53.25-6.61L53.25-6.61Q54.34-7.28 54.95-8.39L54.95-8.39L54.95-8.39Q55.56-9.50 55.78-11.09L55.78-11.09L55.78-11.09Q56-12.69 56-14.94L56-14.94L56-14.94Q56-16.69 55.78-17.98L55.78-17.98L55.78-17.98Q55.56-19.28 54.95-20.17L54.95-20.17L54.95-20.17Q54.34-21.06 53.25-21.61L53.25-21.61L53.25-21.61Q52.16-22.16 50.38-22.47L50.38-22.47L50.38-22.47Q48.59-22.78 46.03-22.89L46.03-22.89L46.03-22.89Q43.47-23 39.97-23L39.97-23L12-23L12-5ZM12-28L39.97-28L39.97-28Q43.03-28 45.25-28.13L45.25-28.13L45.25-28.13Q47.47-28.25 49.03-28.59L49.03-28.59L49.03-28.59Q50.59-28.94 51.56-29.55L51.56-29.55L51.56-29.55Q52.53-30.16 53.08-31.13L53.08-31.13L53.08-31.13Q53.63-32.09 53.81-33.45L53.81-33.45L53.81-33.45Q54-34.81 54-36.69L54-36.69L54-36.69Q54-38.69 53.56-39.94L53.56-39.94L53.56-39.94Q53.13-41.19 52-41.86L52-41.86L52-41.86Q50.88-42.53 48.95-42.77L48.95-42.77L48.95-42.77Q47.03-43 44.03-43L44.03-43L12-43L12-28ZM72 0L72-36L78-36L78 0L72 0ZM78-48L78-42L72-42L72-48L78-48ZM87-18.25L87-18.25L87-18.25Q87-23.78 88.19-27.41L88.19-27.41L88.19-27.41Q89.38-31.03 92-33.16L92-33.16L92-33.16Q94.63-35.28 98.81-36.14L98.81-36.14L98.81-36.14Q103-37 109-37L109-37L109-37Q115-37 119.19-36.14L119.19-36.14L119.19-36.14Q123.38-35.28 126-33.16L126-33.16L126-33.16Q128.63-31.03 129.81-27.41L129.81-27.41L129.81-27.41Q131-23.78 131-18.25L131-18.25L131-18.25Q131-12.72 129.81-9.06L129.81-9.06L129.81-9.06Q128.63-5.41 126-3.25L126-3.25L126-3.25Q123.38-1.09 119.19-0.20L119.19-0.20L119.19-0.20Q115 0.69 109 0.69L109 0.69L109 0.69Q103 0.69 98.81-0.20L98.81-0.20L98.81-0.20Q94.63-1.09 92-3.25L92-3.25L92-3.25Q89.38-5.41 88.19-9.06L88.19-9.06L88.19-9.06Q87-12.72 87-18.25ZM93-18.25L93-18.25L93-18.25Q93-15.25 93.22-13.03L93.22-13.03L93.22-13.03Q93.44-10.81 94.05-9.22L94.05-9.22L94.05-9.22Q94.66-7.63 95.75-6.63L95.75-6.63L95.75-6.63Q96.84-5.63 98.63-5.03L98.63-5.03L98.63-5.03Q100.41-4.44 102.95-4.22L102.95-4.22L102.95-4.22Q105.50-4 109-4L109-4L109-4Q112-4 114.36-4.14L114.36-4.14L114.36-4.14Q116.72-4.28 118.48-4.78L118.48-4.78L118.48-4.78Q120.25-5.28 121.50-6.20L121.50-6.20L121.50-6.20Q122.75-7.13 123.52-8.72L123.52-8.72L123.52-8.72Q124.28-10.31 124.64-12.64L124.64-12.64L124.64-12.64Q125-14.97 125-18.25L125-18.25L125-18.25Q125-21.47 124.64-23.73L124.64-23.73L124.64-23.73Q124.28-26 123.52-27.53L123.52-27.53L123.52-27.53Q122.75-29.06 121.50-29.95L121.50-29.95L121.50-29.95Q120.25-30.84 118.48-31.30L118.48-31.30L118.48-31.30Q116.72-31.75 114.36-31.88L114.36-31.88L114.36-31.88Q112-32 109-32L109-32L109-32Q106-32 103.64-31.88L103.64-31.88L103.64-31.88Q101.28-31.75 99.52-31.30L99.52-31.30L99.52-31.30Q97.75-30.84 96.50-29.95L96.50-29.95L96.50-29.95Q95.25-29.06 94.48-27.53L94.48-27.53L94.48-27.53Q93.72-26 93.36-23.73L93.36-23.73L93.36-23.73Q93-21.47 93-18.25Z" fill="#181b09"></path></g></g><style>text {
  font-size: 64px;
  font-family: Arial Black;
  dominant-baseline: central;
  text-anchor: middle;
}</style></svg>